<!-- <?xml version="1.0" encoding="iso-8859-1"?> -->
<!-- Generator: Adobe Illustrator 18.1.1, SVG Export Plug-In . SVG Version: 6.00 Build 0)  -->
<svg xmlns="http://www.w3.org/2000/svg" xmlns:xlink="http://www.w3.org/1999/xlink" version="1.1" id="Capa_1" x="0px" y="0px" viewBox="0 0 472.327 472.327" style="enable-background:new 0 0 472.327 472.327;" xml:space="preserve" width="512px" height="512px">
<g>
	<path d="M27.444,302.66c-0.003,0-0.003,0-0.003,0c-13.68,0-21.443-1.773-25.175-5.758c-5.84-6.233,0.321-18.978,10.387-37.715   c2.927-5.447,6.932-12.903,7.025-14.795c0-2.148-2.195-6.041-4.318-9.811c-3.5-6.206-7.466-13.241-7.466-20.808   c0-13.67,4.881-19.993,8.447-24.612c2.192-2.837,3.338-4.425,3.338-6.613c0-2.217-3.531-10.238-6.369-16.68   C5.093,147.208,0.015,134.498,4.15,128.16c0.994-1.525,2.962-3.341,6.69-3.341h37.115c14.46,0,18.405,11.523,21.019,19.15   c1.167,3.411,2.492,7.277,3.945,7.366c0.004,0,0.004,0,0.008,0c2.084,0,7.895-1.539,15.25-3.486   c28.236-7.477,86.994-23.03,176.574-23.03c137.738,0,207.576,28.146,207.576,83.653c0,61.616-71.778,94.188-207.576,94.188   c-101.457,0-150.686-14.649-174.345-21.691c-6.97-2.071-12.002-3.569-14.764-3.569c-4.532,0-6.482,4.226-9.157,11.178   c-2.341,6.082-4.996,12.979-12.051,12.979c-2.088,0-5.174,0.187-8.802,0.4C40.35,302.274,33.778,302.66,27.444,302.66z    M10.84,131.889c-0.48,0-0.711,0.083-0.752,0.11c-2.727,2.816,6.296,23.307,9.693,31.019c4.45,10.107,6.966,15.996,6.966,19.531   c0,4.701-2.444,7.87-4.812,10.936c-3.269,4.231-6.973,9.03-6.973,20.29c0,5.716,3.483,11.889,6.555,17.342   c2.806,4.979,5.229,9.279,5.229,13.29c0,3.328-2.696,8.506-7.867,18.123c-3.901,7.263-14.26,26.545-11.457,29.541   c1.236,1.318,5.475,3.521,20.018,3.521h0.003c6.124,0,12.582-0.38,17.771-0.69c3.8-0.228,7.031-0.414,9.22-0.414   c2.047,0,3.49-3.348,5.454-8.45c2.547-6.628,6.041-15.706,15.754-15.706c3.79,0,8.958,1.54,16.78,3.866   c23.338,6.945,71.899,21.395,172.328,21.395c91.473,0,200.507-15.112,200.507-87.118c0-50.819-67.46-76.584-200.507-76.584   c-88.658,0-146.815,15.396-174.766,22.796c-9.068,2.402-14.063,3.722-16.959,3.722c-6.718-0.4-8.854-6.642-10.738-12.145   c-2.976-8.685-5.579-14.373-14.333-14.373H10.84z" fill="#63768f"/>
</g>
<g>
	<path d="M310.112,347.508H202.893c-15.247,0-24.584-39.642-27.084-51.792c-0.393-1.913,0.839-3.776,2.752-4.17   c1.898-0.449,3.779,0.835,4.173,2.747c4.587,22.286,13.783,46.146,20.159,46.146h107.219c4.777,0,13.888-21.188,19.497-45.338   c0.438-1.898,2.357-3.071,4.242-2.644c1.898,0.441,3.082,2.34,2.641,4.246C332.947,311.974,323.281,347.508,310.112,347.508z" fill="#63768f"/>
</g>
<g>
	<path d="M280.067,334.542c-7.798,0-14.139-6.345-14.139-14.139c0-7.794,6.341-14.139,14.139-14.139   c7.798,0,14.139,6.345,14.139,14.139C294.206,328.197,287.865,334.542,280.067,334.542z M280.067,309.799   c-5.848,0-10.604,4.757-10.604,10.604s4.757,10.604,10.604,10.604c5.848,0,10.604-4.757,10.604-10.604   S285.915,309.799,280.067,309.799z" fill="#63768f"/>
</g>
<g>
	<path d="M229.994,333.955c-7.47,0-13.549-6.082-13.549-13.552s6.079-13.552,13.549-13.552c7.47,0,13.549,6.082,13.549,13.552   S237.464,333.955,229.994,333.955z M229.994,310.386c-5.522,0-10.014,4.494-10.014,10.018s4.491,10.018,10.014,10.018   c5.522,0,10.015-4.494,10.015-10.018S235.516,310.386,229.994,310.386z" fill="#63768f"/>
</g>
<g>
	<path d="M468.793,212.069H11.551c-0.977,0-1.767-0.794-1.767-1.768c0-0.974,0.79-1.768,1.767-1.768h457.242   c0.977,0,1.768,0.794,1.768,1.768C470.56,211.275,469.769,212.069,468.793,212.069z" fill="#63768f"/>
</g>
<g>
	<path d="M333.053,297.669c-0.617,0-1.215-0.324-1.539-0.897c-0.483-0.842-0.186-1.926,0.662-2.409   c0.26-0.146,26.035-14.975,45.451-40.712c19.387-25.702,23.953-43.59,23.998-43.77c0.231-0.946,1.16-1.574,2.137-1.291   c0.949,0.228,1.525,1.188,1.295,2.133c-0.184,0.753-4.733,18.709-24.605,45.055c-19.873,26.345-46.266,41.512-46.528,41.664   C333.647,297.594,333.347,297.669,333.053,297.669z" fill="#63768f"/>
</g>
<g>
	<path d="M261.803,300.887c-0.722,0-1.398-0.449-1.657-1.167c-0.335-0.911,0.138-1.927,1.053-2.265   c0.169-0.062,17.163-6.565,37.271-37.37c20.27-31.054,21.356-49.68,21.367-49.866c0.045-0.974,0.911-1.657,1.847-1.684   c0.974,0.049,1.729,0.877,1.681,1.85c-0.034,0.794-1.143,19.786-21.933,51.633c-20.853,31.944-38.296,38.503-39.031,38.766   C262.204,300.851,262.004,300.887,261.803,300.887z" fill="#63768f"/>
</g>
<g>
	<path d="M126.392,288.487c-0.207,0-0.414-0.034-0.618-0.11c-0.711-0.27-17.508-6.842-25.906-35.431   c-8.277-28.174-5.461-42.417-5.336-43.004c0.196-0.959,1.135-1.588,2.088-1.366c0.953,0.193,1.566,1.132,1.37,2.085   c-0.027,0.138-2.72,14.097,5.268,41.291c7.908,26.911,23.597,33.056,23.753,33.11c0.914,0.346,1.381,1.36,1.039,2.278   C127.784,288.052,127.106,288.487,126.392,288.487z" fill="#63768f"/>
</g>
<g>
	<path d="M200.059,298.636c-0.252,0-0.512-0.056-0.753-0.166c-1.143-0.538-28.133-13.482-38.875-39.296   c-10.639-25.558-9.435-48.03-9.379-48.976c0.059-0.974,0.952-1.815,1.868-1.657c0.973,0.056,1.719,0.891,1.66,1.864   c-0.014,0.228-1.195,22.645,9.116,47.415c10.225,24.557,36.849,37.322,37.114,37.446c0.885,0.421,1.264,1.471,0.846,2.354   C201.357,298.263,200.722,298.636,200.059,298.636z" fill="#63768f"/>
</g>
<g>
</g>
<g>
</g>
<g>
</g>
<g>
</g>
<g>
</g>
<g>
</g>
<g>
</g>
<g>
</g>
<g>
</g>
<g>
</g>
<g>
</g>
<g>
</g>
<g>
</g>
<g>
</g>
<g>
</g>
</svg>
